inDegrees=no
num_controls=7
num_derivatives=13
num_iterations=207
num_multipliers=7
num_parameters=0
num_slacks=7
num_states=26
objective=5.600127
objective_accelerations=0.603961
objective_balance=0.104560
objective_effort=0.444537
objective_height=4.364999
objective_ligament=0.082070
solver_duration=2481.536544
status=Solve_Succeeded
success=true
DataType=double
version=3
OpenSimVersion=4.4-2022-07-23-0e9fedc
endheader
time	/jointset/ground_pelvis/pelvis_tilt/value	/jointset/ground_pelvis/pelvis_tx/value	/jointset/ground_pelvis/pelvis_ty/value	/jointset/hip_l/hip_flexion_l/value	/jointset/hip_l/hip_adduction_l/value	/jointset/hip_l/hip_rotation_l/value	/jointset/back/lumbar_extension/value	/jointset/patellofemoral_l/patellar_flexion_l/value	/jointset/knee_l/knee_flexion_l/value	/jointset/knee_l/knee_adduction_l/value	/jointset/knee_l/knee_rotation_l/value	/jointset/ankle_l/ankle_angle_l/value	/jointset/subtalar_l/subtalar_angle_l/value	/jointset/ground_pelvis/pelvis_tilt/speed	/jointset/ground_pelvis/pelvis_tx/speed	/jointset/ground_pelvis/pelvis_ty/speed	/jointset/hip_l/hip_flexion_l/speed	/jointset/hip_l/hip_adduction_l/speed	/jointset/hip_l/hip_rotation_l/speed	/jointset/back/lumbar_extension/speed	/jointset/patellofemoral_l/patellar_flexion_l/speed	/jointset/knee_l/knee_flexion_l/speed	/jointset/knee_l/knee_adduction_l/speed	/jointset/knee_l/knee_rotation_l/speed	/jointset/ankle_l/ankle_angle_l/speed	/jointset/subtalar_l/subtalar_angle_l/speed	/forceset/tau_hip_flexion_l	/forceset/tau_hip_adduction_l	/forceset/tau_hip_rotation_l	/forceset/tau_knee_flexion_l	/forceset/tau_ankle_angle_l	/forceset/tau_subtalar_angle_l	/forceset/tau_lumbar_extension	lambda_cid13_p0	lambda_cid13_p1	lambda_cid13_p2	lambda_cid13_p3	lambda_cid13_p4	lambda_cid13_p5	lambda_cid14_p0	/jointset/ground_pelvis/pelvis_tilt/accel	/jointset/ground_pelvis/pelvis_tx/accel	/jointset/ground_pelvis/pelvis_ty/accel	/jointset/hip_l/hip_flexion_l/accel	/jointset/hip_l/hip_adduction_l/accel	/jointset/hip_l/hip_rotation_l/accel	/jointset/back/lumbar_extension/accel	/jointset/patellofemoral_l/patellar_flexion_l/accel	/jointset/knee_l/knee_flexion_l/accel	/jointset/knee_l/knee_adduction_l/accel	/jointset/knee_l/knee_rotation_l/accel	/jointset/ankle_l/ankle_angle_l/accel	/jointset/subtalar_l/subtalar_angle_l/accel	gamma_cid13_p0	gamma_cid13_p1	gamma_cid13_p2	gamma_cid13_p3	gamma_cid13_p4	gamma_cid13_p5	gamma_cid14_p0
1	-0.6868441580029364	-0.1269837012536414	0.6039681607340114	1.951736823343691	-0.2982339895295163	0.1237629917435156	-0.4363307206896915	1.164663431929182	1.164663431929288	-0.1745288283795162	0.1745318435141174	0.09314274404511093	-0.0311972368090656	-0.01057741276201263	0.0007647716846012829	-0.003172374443943941	0.01640860094211064	0.0006907708392552869	0.003245488628867372	-1.464409146613144e-05	0.008521017502354679	0.008521017502355392	1.074606235661026e-05	6.083168788275446e-07	0.003337334043209866	0.00133985835489273	-0.4586307240928884	0.009034610015512642	-0.01752505848063152	-0.2254234629950643	0.1119497204779755	0.03559796319356081	0.3636058094188943	-10.09002630969385	-13.80516359776093	1.926042747811129	9.215962080578015	-728.3671594760601	-44.47920759585507	-1.596571442525966	2.051072348047925	0.2775011685914331	1.657775049914937	-6.354503646071617	-0.3403425047478245	-1.678746319342889	-0.01611270730812402	-4.572956761118761	-4.572956761119131	-0.04038221283863907	0.01401116524610689	-0.546109323340459	-0.4262104080505155	7.917849497248994e-10	3.284648529153286e-09	-5.122357634597447e-09	-1.314568930121872e-10	1.079414517861221e-09	-1.469957348076343e-09	1.227960029067335e-09
1.01	-0.6868481173979338	-0.1269622445318762	0.6040191947636232	1.951584194905709	-0.2982432313900334	0.1237108126638421	-0.4363308564252755	1.164520251655075	1.164520251655049	-0.1745287709156655	0.1745318477564248	0.09314900440954227	-0.0312041670880925	0.009785158822244752	0.003527204200928331	0.0133755673389593	-0.04692575987491689	-0.002537047299781439	-0.01367861627361516	-1.290145910743762e-05	-0.0371507871648752	-0.03715078716487542	1.019562761916176e-06	4.647393973288161e-07	-0.002086954499221107	-0.002723980080805112	-0.4584797887161618	0.009063487074832104	-0.01753020400955262	-0.2253633959897805	0.1119320427023091	0.0356268100161354	0.3635048565059342	-10.08361046839363	-13.82049713122934	1.930408545129551	9.188502101311277	-728.1994910633966	-44.50585035072226	-1.600411581331221	2.028792942362255	0.2757091927815005	1.652760926429337	-6.321623476158823	-0.3136889392277373	-1.698843100151241	0.008257983160265919	-4.56334864470479	-4.563348644704623	0.01877131233634179	-0.006998050811242664	-0.5408423771685633	-0.3961817211814543	-2.375323421291004e-09	-5.990721625549326e-09	1.867612847673729e-08	8.393670884556069e-10	-4.255751610933915e-09	1.682901315419528e-08	-4.447741365267543e-09
1.02	-0.6866484624013466	-0.1269131445050218	0.6042355996478538	1.950798478624223	-0.2982846889260912	0.1234894724302553	-0.4363309866875638	1.16392054206926	1.163920542069105	-0.1745288028806325	0.1745318563766369	0.09310097113705405	-0.03125167798344681	0.03014546555641623	0.006293432702412004	0.02990179647988097	-0.1102089677575625	-0.005752364268662293	-0.03058674215410998	-1.354944064590966e-05	-0.08278484483929487	-0.08278484483929369	-7.139702582580843e-06	1.483899275949508e-06	-0.007521393340619459	-0.006776264910583646	-0.4583288533394372	0.0090923641341541	-0.01753534953852715	-0.2253033289844977	0.1119143649266413	0.0356556568387126	0.3634039035929719	-10.08363255838134	-13.83463725609713	1.934508546008206	9.181084306117892	-728.1173680693821	-44.50219430983421	-1.616496554815157	2.050619378030778	0.2782603656227311	1.653432521518616	-6.344273059195226	-0.3378422707166309	-1.675550514945318	-0.01659083008743511	-4.565407362556726	-4.565407362556628	-0.0400687659885955	0.01424371271808652	-0.5481393831339806	-0.4238996868666428	-5.74746419737041e-09	-1.520739294906143e-08	4.178353969805817e-08	2.43543120078275e-09	-9.866081999500115e-09	3.448233167521343e-08	-9.931011741371601e-09
1.03	-0.6862451825846707	-0.1268363376541372	0.6046171099548217	1.949380244754725	-0.298358196165302	0.1230991811975883	-0.4363311328923958	1.162864738038441	1.16286473803834	-0.174528925416863	0.1745318808849577	0.09299850778451296	-0.03133961435766806	0.05051318303092089	0.009071083150601301	0.04639183018862771	-0.1734231595033557	-0.008942062575491841	-0.04746513473242498	-1.55563832198264e-05	-0.1283638233046548	-0.128363823304654	-1.631516502723508e-05	3.253834813507039e-06	-0.01297617598278013	-0.01080416176233114	-0.4578749107622045	0.009175912807100754	-0.0175594617325939	-0.225188181872551	0.111971003152032	0.03575694590187982	0.3631344893405911	-10.0412631345211	-13.89134542476346	1.949602943074311	9.114741727582107	-727.780423854654	-44.57182951984731	-1.64505659023869	2.030249410118601	0.2779900530737965	1.645520456923623	-6.307796896948656	-0.3084870019665351	-1.693041336741623	0.00801464488133302	-4.552319269878862	-4.552319269878929	0.01880972006087591	-0.006896882807795899	-0.5448819007395153	-0.3912112786840503	-9.121697140848424e-09	-2.442346530490831e-08	6.488389913478707e-08	4.037875314445197e-09	-1.547922018663541e-08	5.212906191070858e-08	-1.541231853565698e-08
1.04	-0.6856381452976641	-0.1267316597650393	0.6051632669311509	1.947330308034828	-0.2984633910658421	0.1225402944976444	-0.4363312951123989	1.161353508986698	1.161353508986653	-0.1745291093764297	0.1745319149892774	0.09284134976635339	-0.03146762501927784	0.07089695962376542	0.01186764034508872	0.06283113035218132	-0.2365495378362389	-0.01208989653433612	-0.06430583560942207	-1.675247684082336e-05	-0.1738698490241458	-0.173869849024146	-1.942437014035385e-05	3.403099174734361e-06	-0.01846032646423789	-0.014791122388288	-0.4574209681849768	0.009259461480046204	-0.01758357392667739	-0.225073034760607	0.1120276413774209	0.03585823496504539	0.3628650750882054	-10.00533572691539	-13.94689723085629	1.964480579927966	9.068255874559666	-727.5290582381386	-44.61169828201383	-1.686391219398377	2.053831201698764	0.2820417148823386	1.643285812479986	-6.326710376613221	-0.3294694011195536	-1.668012174681703	-0.01642866029685435	-4.550816813382973	-4.550816813382999	-0.03885551452228191	0.01391957848277096	-0.5540129509934205	-0.415712441708497	-1.210650778776485e-08	-3.330639002221458e-08	8.681380158980327e-08	4.889417267247232e-09	-2.045689533557096e-08	6.857876542904875e-08	-2.066774960470288e-08
1.05	-0.6848272224548961	-0.1265989047284007	0.6058734862579361	1.944649735088148	-0.2985998256243282	0.1218132683530051	-0.4363314645809455	1.159387700466162	1.159387700466153	-0.1745293393862425	0.1745319592037846	0.09262916254983179	-0.03163527596679146	0.09128636601693972	0.01468812338846712	0.07919656655276132	-0.2995308355458963	-0.01518517727965746	-0.08108773943060256	-1.616476275524014e-05	-0.2192678009855759	-0.2192678009855731	-2.490584359400605e-05	5.635832736955563e-06	-0.02398543340197685	-0.01872755745151712	-0.4565187867145773	0.009379355718088815	-0.01762747021377129	-0.2249333625640052	0.1122251032118494	0.0360135132321922	0.3623127438242771	-9.899320317966703	-14.04190266934788	1.989913535825443	8.947134906241152	-726.9101805722003	-44.72137019688669	-1.741028433903038	2.031306678082641	0.282766211772412	1.630742123006535	-6.278709890853852	-0.2977927384515501	-1.681553469455517	0.008448957711431998	-4.530671036692802	-4.53067103669231	0.01884590386493065	-0.006622096058894571	-0.5530059917427107	-0.380888791513844	-1.507914898791372e-08	-4.217890387581645e-08	1.08707127264141e-07	5.717493527522383e-09	-2.541471226456278e-08	8.499106186247783e-08	-2.591612205733504e-08
1.06	-0.6838124432842075	-0.1264378019387869	0.6067468738665588	1.941340375079822	-0.2987668600557107	0.1209187683734301	-0.4363315988782284	1.156968635096178	1.156968635096209	-0.1745295761372678	0.1745320263022552	0.09236147497861691	-0.03184194721551414	0.111668225208353	0.01753719094012924	0.09546478671971369	-0.3623069501640279	-0.01820987111350265	-0.09780060259655581	-9.71823065726475e-06	-0.264521218913796	-0.2645212189137897	-2.077261217419893e-05	7.979892225504312e-06	-0.02956039740285839	-0.02259518263009471	-0.4556166052441993	0.009499249956128306	-0.01767136650083744	-0.2247936903674013	0.1124225650462814	0.0361687914993362	0.3617604125603242	-9.799737356409736	-14.13584084801789	2.015243794562201	8.845424709460708	-726.3767047254242	-44.80244038672932	-1.809561134667396	2.052321761346581	0.2877586165390712	1.623842605754459	-6.285673758308051	-0.3153520188242979	-1.654204043636223	-0.0152568966942026	-4.521910006741001	-4.521910006740923	-0.036932573547581	0.01394184366798771	-0.563984363621955	-0.4019504647781675	-1.788620888152827e-08	-5.045667430332353e-08	1.280614404201231e-07	6.642310172676967e-09	-3.01123345093603e-08	9.904993122411604e-08	-3.057935054477337e-08
1.07	-0.6825938221293294	-0.1262480436171864	0.6077824061635462	1.937404327682129	-0.298963764319502	0.119857573596959	-0.4363317317877802	1.154097833637988	1.154097833638052	-0.1745297915868958	0.1745321247473156	0.09203775414742747	-0.03208693029213493	0.1320599837728239	0.02042129179770472	0.1116203136224479	-0.4248625980295376	-0.02115397046230062	-0.1144217668864115	-2.411327467063834e-05	-0.3096070188912931	-0.3096070188912901	-1.986195244985787e-05	1.065710698918045e-05	-0.03519453160579673	-0.02638465222450316	-0.4543334076514804	0.009662232248447351	-0.01773379989670804	-0.2246247971876256	0.112726499781315	0.03638413730634895	0.36097104955911	-9.645029086658484	-14.26919692158322	2.051060058379336	8.684186455152879	-725.5377429204665	-44.95438534351183	-1.892809432237443	2.033196519280092	0.2897601106155662	1.608196848779933	-6.234524468054801	-0.2814020317294049	-1.663614798415434	0.004381750502305487	-4.497099810567172	-4.497099810567653	0.01895703182553828	-0.006763157367156862	-0.564740997093394	-0.3649362752960344	-2.06844612588378e-08	-5.870280944220855e-08	1.472806997187459e-07	7.572272582984714e-09	-3.479611661138154e-08	1.129836182947015e-07	-3.521145435321203e-08
1.08	-0.6811711646657554	-0.1260292394289603	0.6089788515528098	1.932843920972306	-0.2991896022045461	0.1186306587422365	-0.4363322261357936	1.150777137216562	1.150777137216655	-0.1745299271007139	0.1745322112009853	0.09165736936451548	-0.0323693062784046	0.1524754869486142	0.02334636426526618	0.1276474051750271	-0.4871788125903398	-0.02399659536397078	-0.1309446182464775	-8.200596838969978e-05	-0.3545002115613168	-0.3545002115613172	-4.785449001864025e-06	5.581611843888611e-06	-0.04089318774728132	-0.03007376455986569	-0.4530502100587465	0.009825214540765062	-0.0177962332925484	-0.2244559040078612	0.1130304345163417	0.03659948311335878	0.3601816865579145	-9.496738916410775	-14.40161465097037	2.086938554142594	8.541654827884161	-724.7839660522558	-45.07944956828921	-1.991665247019721	2.057070683610461	0.2959529385362606	1.598155535723462	-6.237787097366541	-0.2950571293987191	-1.634541457678265	-0.02395642663484096	-4.483388545246361	-4.483388545246258	-0.03409940480284287	0.01239130168615455	-0.5768887513312133	-0.3818790129689613	-2.448594096687412e-08	-6.844373650015756e-08	1.628694895666251e-07	1.028181167126486e-08	-3.995407800042926e-08	1.250678852102418e-07	-3.953013517520211e-08
